# File produced by Open Asset Import Library (http://www.assimp.sf.net)
# (assimp v5.0.1588609223)

mtllib result.mtl

# 8 vertex positions
v  -0.5 0.89999998 0.5
v  -0.5 1 0.5
v  -0.5 1 -0.5
v  -0.5 0.89999998 -0.5
v  0.5 1 -0.5
v  0.5 0.89999998 -0.5
v  0.5 1 0.5
v  0.5 0.89999998 0.5

# 14 UV coordinates
vt 0.375 0 0
vt 0.625 0 0
vt 0.625 0.25 0
vt 0.375 0.25 0
vt 0.625 0.5 0
vt 0.375 0.5 0
vt 0.625 0.75 0
vt 0.375 0.75 0
vt 0.625 1 0
vt 0.375 1 0
vt 0.125 0.5 0
vt 0.125 0.75 0
vt 0.875 0.5 0
vt 0.875 0.75 0

# 6 vertex normals
vn -1 0 0
vn 0 0 -1
vn 1 0 0
vn 0 0 1
vn 0 -0.1 0
vn 0 0.1 0

# Mesh 'Cube.001' with 12 faces
g Cube.001
usemtl Material.002
f  1/1/1 2/2/1 3/3/1
f  1/1/1 3/3/1 4/4/1
f  4/4/2 3/3/2 5/5/2
f  4/4/2 5/5/2 6/6/2
f  6/6/3 5/5/3 7/7/3
f  6/6/3 7/7/3 8/8/3
f  8/8/4 7/7/4 2/9/4
f  8/8/4 2/9/4 1/10/4
f  4/11/5 6/6/5 8/8/5
f  4/11/5 8/8/5 1/12/5
f  5/5/6 3/13/6 2/14/6
f  5/5/6 2/14/6 7/7/6

