# Rhino

mtllib the_shard.mtl
usemtl Concrete_Aggregate_Smoke
v 509234.34179407154 78521.792745686631 -1825721.7009840498
v 475570.7442441539 78521.792745686529 -1849939.2344272006
v 476402.30715393933 78521.792745686573 -1829191.7999134758
v 508402.778884286 78521.792745686573 -1846469.1354977749
v 475570.7442441539 78521.792745686529 -1849939.2344272006
v 508402.77888428589 0 -1846469.1354977749
v 475570.7442441539 0 -1849939.2344272006
v 508402.778884286 78521.792745686573 -1846469.1354977749
v 508402.778884286 78521.792745686573 -1846469.1354977749
v 509234.34179407131 0 -1825721.7009840498
v 508402.77888428589 0 -1846469.1354977749
v 509234.34179407154 78521.792745686631 -1825721.7009840498
v 476402.30715393933 78521.792745686573 -1829191.7999134758
v 509234.34179407131 0 -1825721.7009840498
v 476402.30715393933 0 -1829191.7999134758
v 509234.34179407154 78521.792745686631 -1825721.7009840498
v 466079.77395402448 313326.35439226322 -1848750.5803691733
v 461747.01584852295 280228.83543029061 -1851910.8087619871
v 467941.7232386418 314079.60441494366 -1845950.9941455754
v 466149.44391055807 313366.86310383509 -1848558.6800843517
v 451118.35684753413 84811.118983900407 -1826887.5001034515
v 451118.35684753413 18920.640000000043 -1826887.5001034515
v 493368.23714584432 99064.433089815924 -1874763.1941008791
v 496497.35010116588 18920.64000000005 -1878308.966379395
v 467149.84730313026 18920.640000000043 -1873721.3290903352
v 444515.24418761506 18920.640000000043 -1851259.3785992537
v 475441.99250196427 314459.63223654119 -1854449.9672459441
v 467961.92737486743 314354.94596099242 -1845973.8885783309
v 466214.42569217383 314354.94596099242 -1848652.3680444416
v 461747.01584852295 280228.83543029061 -1851910.8087619871
v 467149.84730313026 18920.640000000043 -1873721.3290903352
v 444515.24418761506 18920.640000000043 -1851259.3785992537
v 461747.01584852295 280228.83543029061 -1851910.8087619871
v 475453.81754824967 314317.54680536821 -1854463.3668649127
v 475380.95080190658 314307.05760393955 -1854438.6496252939
v 470951.12772805366 313326.35439226305 -1844451.6533634465
v 474625.64292909141 280228.83543029043 -1840545.5332509973
v 467941.7232386418 314079.60441494366 -1845950.9941455754
v 470752.05300858273 313366.86310383485 -1844496.9178995171
v 451118.35684753413 84811.118983900407 -1826887.5001034515
v 451118.35684753413 18920.640000000043 -1826887.5001034515
v 493368.23714584432 99064.433089815924 -1874763.1941008791
v 496497.35010116588 18920.64000000005 -1878308.966379395
v 495594.96114394796 18920.640000000043 -1848618.7654614728
v 476122.20115312532 18920.640000000043 -1823366.5161279878
v 475441.99250196427 314459.63223654119 -1854449.9672459441
v 467961.92737486743 314354.94596099242 -1845973.8885783309
v 470836.93260184809 314354.94596099225 -1844573.0462152408
v 474625.64292909141 280228.83543029043 -1840545.5332509973
v 495594.96114394796 18920.640000000043 -1848618.7654614728
v 476122.20115312532 18920.640000000043 -1823366.5161279878
v 474625.64292909141 280228.83543029043 -1840545.5332509973
v 475453.81754824967 314317.54680536821 -1854463.3668649127
v 475438.35384181683 314307.05760393932 -1854387.9919457394
v 512241.03924154333 18920.640000000029 -1876158.7787445234
v 512241.03924154333 3900.0000000000196 -1876158.7787445234
v 509234.34179407143 3900.0000000000769 -1937226.8923857498
v 509234.34179407143 18920.640000000076 -1937226.8923857498
v 451118.35684753413 18920.640000000043 -1826887.5001034515
v 451118.35684753413 3900.0000000000186 -1826887.5001034515
v 476120.28649056022 3900.0000000000232 -1823366.7857463763
v 476120.28649056022 18920.640000000018 -1823366.7857463763
v 476122.20115312532 18920.640000000043 -1823366.5161279878
v 476122.20115312544 3900.0000000000177 -1823366.5161279875
v 495594.96114394796 3900.0000000000232 -1848618.7654614728
v 495594.96114394796 18920.640000000043 -1848618.7654614728
v 508402.77888428589 18920.63999999993 -1846469.1354977747
v 508402.77888428589 3899.9999999999159 -1846469.1354977749
v 512241.03924154333 3900.0000000000196 -1876158.7787445234
v 512241.03924154333 18920.640000000029 -1876158.7787445234
v 455355.37895342399 18920.640000000029 -1944585.3887741563
v 455355.37895342399 3900.0000000000214 -1944585.3887741563
v 458362.07640089601 3900.0000000000214 -1883517.2751329299
v 458362.07640089601 18920.640000000018 -1883517.2751329299
v 475441.99250196427 314459.63223654119 -1854449.9672459441
v 461747.01584852295 280228.83543029061 -1851910.8087619871
v 474625.64292909141 280228.83543029043 -1840545.5332509973
v 466214.42569217383 314354.94596099242 -1848652.3680444416
v 467961.92737486743 314354.94596099242 -1845973.8885783309
v 470836.93260184809 314354.94596099225 -1844573.0462152408
v 461747.01584852295 280228.83543029061 -1851910.8087619871
v 470836.93260184809 314354.94596099225 -1844573.0462152408
v 474625.64292909141 280228.83543029043 -1840545.5332509973
v 466214.42569217383 314354.94596099242 -1848652.3680444416
v 475441.99250196427 314459.63223654119 -1854449.9672459441
v 475453.81754824967 314317.54680536821 -1854463.3668649127
v 475394.61235300155 314307.05760393915 -1854454.1302902126
v 455355.37895342399 18920.640000000029 -1944585.3887741563
v 509234.34179407143 3900.0000000000769 -1937226.8923857498
v 455355.37895342399 3900.0000000000214 -1944585.3887741563
v 509234.34179407143 18920.640000000076 -1937226.8923857498
v 451215.28204139351 3900.0000000000214 -1826732.3389546778
v 444515.24418761506 18920.640000000043 -1851259.3785992537
v 436815.08876298688 18920.640000000039 -1879680.4069949933
v 451118.35684753413 18920.640000000043 -1826887.5001034515
v 455355.37895342399 18920.640000000029 -1944585.3887741563
v 512241.03924154333 18920.640000000029 -1876158.7787445234
v 509234.34179407143 18920.640000000076 -1937226.8923857498
v 496497.35010116588 18920.64000000005 -1878308.966379395
v 508402.77888428589 18920.63999999993 -1846469.1354977747
v 467149.84730313026 18920.640000000043 -1873721.3290903352
v 495594.96114394796 18920.640000000043 -1848618.7654614728
v 458362.07640089601 18920.640000000018 -1883517.2751329299
v 444515.24418761506 18920.640000000043 -1851259.3785992537
v 436815.08876298688 18920.640000000039 -1879680.4069949933
v 436815.08876298688 3900.0000000000214 -1879680.4069949933
v 436815.08876298688 18920.640000000039 -1879680.4069949933
v 458362.07640089601 3900.0000000000214 -1883517.2751329299
v 436815.08876298688 3900.0000000000214 -1879680.4069949933
v 458362.07640089601 18920.640000000018 -1883517.2751329299
v 509234.34179407154 78521.792745686631 -1825721.7009840498
v 475570.7442441539 78521.792745686529 -1849939.2344272006
v 476402.30715393933 78521.792745686573 -1829191.7999134758
v 508402.778884286 78521.792745686573 -1846469.1354977749
vt 0.54443246126174927 0
vt 0.40139302611351013 0.12064365297555923
vt 0.15674218535423279 0.074134819209575653
vt 0.78908330202102661 0.046508833765983582
vt 0.32673856616020203 0.31053417921066284
vt 0.32374286651611328 0.30816099047660828
vt 0.32673805952072144 0.30807763338088989
vt 0.32362678647041321 0.31061720848083496
vt 0.32673856616020203 0.31053417921066284
vt 0.32374286651611328 0.30816099047660828
vt 0.32673805952072144 0.30807763338088989
vt 0.32362678647041321 0.31061720848083496
vt 0.32673856616020203 0.31053417921066284
vt 0.32374286651611328 0.30816099047660828
vt 0.32673805952072144 0.30807763338088989
vt 0.32362678647041321 0.31061720848083496
vt 0.32837516069412231 0.31099492311477661
vt 0.32787609100341797 0.31069383025169373
vt 0.3286738395690918 0.31098648905754089
vt 0.32874366641044617 0.31100085377693176
vt 0.32987871766090393 0.30904638767242432
vt 0.32990637421607971 0.30850139260292053
vt 0.32574489712715149 0.30916538834571838
vt 0.32549223303794861 0.30850675702095032
vt 0.32642325758934021 0.30847349762916565
vt 0.32846549153327942 0.30846700072288513
vt 0.32622334361076355 0.31102457642555237
vt 0.32923313975334167 0.31100910902023315
vt 0.32894054055213928 0.31102392077445984
vt 0.32787609100341797 0.31069383025169373
vt 0.32644253969192505 0.30847564339637756
vt 0.32846549153327942 0.30846700072288513
vt 0.32787609100341797 0.31069383025169373
vt 0.32679703831672668 0.31099480390548706
vt 0.32680037617683411 0.31099480390548706
vt 0.32837516069412231 0.31099492311477661
vt 0.32787609100341797 0.31069383025169373
vt 0.3286738395690918 0.31098648905754089
vt 0.32874366641044617 0.31100085377693176
vt 0.32987871766090393 0.30904638767242432
vt 0.32990637421607971 0.30850139260292053
vt 0.32574489712715149 0.30916538834571838
vt 0.32549223303794861 0.30850675702095032
vt 0.32642325758934021 0.30847349762916565
vt 0.32846549153327942 0.30846700072288513
vt 0.32622334361076355 0.31102457642555237
vt 0.32923313975334167 0.31100910902023315
vt 0.32894054055213928 0.31102392077445984
vt 0.32787609100341797 0.31069383025169373
vt 0.32644253969192505 0.30847564339637756
vt 0.32846549153327942 0.30846700072288513
vt 0.32787609100341797 0.31069383025169373
vt 0.32679703831672668 0.31099480390548706
vt 0.32680037617683411 0.31099480390548706
vt 0.32510870695114136 0.30833348631858826
vt 0.32512003183364868 0.30819138884544373
vt 0.32709264755249023 0.30831968784332275
vt 0.32708388566970825 0.30844905972480774
vt 0.32605364918708801 0.30838876962661743
vt 0.32606369256973267 0.30825275182723999
vt 0.32708927989006042 0.30831944942474365
vt 0.32708051800727844 0.30844885110855103
vt 0.32587093114852905 0.30837807059288025
vt 0.3258812427520752 0.30824089050292969
vt 0.32706800103187561 0.30831807851791382
vt 0.32705920934677124 0.30844762921333313
vt 0.32616153359413147 0.30839508771896362
vt 0.32617145776748657 0.3082597553730011
vt 0.32709264755249023 0.30831968784332275
vt 0.32708388566970825 0.30844905972480774
vt 0.32510870695114136 0.30833348631858826
vt 0.32512003183364868 0.30819138884544373
vt 0.32709264755249023 0.30831968784332275
vt 0.32708388566970825 0.30844905972480774
vt 0.58407849073410034 0.92931371927261353
vt 0.44595548510551453 0.84981650114059448
vt 0.64510166645050049 0.84981650114059448
vt 1 0.47727769613265991
vt 0.98250573873519897 0.48212936520576477
vt 0.94708186388015747 0.48519572615623474
vt 0.19914616644382477 0.92363351583480835
vt 0.062030460685491562 1
vt 0 0.92363351583480835
vt 0.13350969552993774 1
vt 0.32624566555023193 0.31109011173248291
vt 0.32624498009681702 0.31108886003494263
vt 0.32624834775924683 0.31108886003494263
vt 0.32346382737159729 0.30840358138084412
vt 0.32145974040031433 0.30836498737335205
vt 0.32347586750984192 0.30826935172080994
vt 0.32144707441329956 0.30848953127861023
vt 0.32994493842124939 0.30837926268577576
vt 0.32910114526748657 0.30846992135047913
vt 0.32807311415672302 0.30842974781990051
vt 0.32993230223655701 0.30850240588188171
vt 0.32518503069877625 0.3083493709564209
vt 0.32485869526863098 0.3085303008556366
vt 0.32237797975540161 0.30843222141265869
vt 0.32550707459449768 0.30849441885948181
vt 0.32599529623985291 0.30855461955070496
vt 0.32686114311218262 0.3084627091884613
vt 0.32638585567474365 0.30852565169334412
vt 0.3268684446811676 0.30844002962112427
vt 0.32922396063804626 0.30846604704856873
vt 0.32837149500846863 0.30842188000679016
vt 0.32808557152748108 0.30829834938049316
vt 0.32836738228797913 0.30842134356498718
vt 0.32709828019142151 0.30831953883171082
vt 0.32837533950805664 0.3082888126373291
vt 0.32708954811096191 0.30844894051551819
vt 0.54443246126174927 0
vt 0.40139302611351013 0.12064365297555923
vt 0.15674218535423279 0.074134819209575653
vt 0.78908330202102661 0.046508833765983582
vn 0 1 0
vn 0 1 0
vn 0 1 0
vn 0 1 0
vn 0.10510703176259995 0 -0.99446094036102295
vn 0.10510703176259995 0 -0.99446094036102295
vn 0.10510703176259995 0 -0.99446094036102295
vn 0.10510703176259995 0 -0.99446094036102295
vn 0.99919778108596802 0 -0.040048122406005859
vn 0.99919778108596802 0 -0.040048122406005859
vn 0.99919778108596802 0 -0.040048122406005859
vn 0.99919778108596802 0 -0.040048122406005859
vn 0.10510703176259995 0 -0.99446094036102295
vn 0.10510703176259995 0 -0.99446094036102295
vn 0.10510703176259995 0 -0.99446094036102295
vn 0.10510703176259995 0 -0.99446094036102295
vn -0.94204318523406982 0.092530742287635803 0.32247897982597351
vn -0.97442632913589478 0.079892285168170929 0.21002504229545593
vn -0.83277130126953125 0.10628402978181839 0.54331916570663452
vn -0.87868368625640869 0.10200819373130798 0.46637898683547974
vn -0.96243506669998169 0.042567875236272812 0.26815420389175415
vn -0.9652024507522583 0 0.26150387525558472
vn -0.2255014181137085 0.052858658134937286 -0.97280782461166382
vn -0.15433597564697266 0.037654921412467957 -0.98730063438415527
vn -0.21020616590976715 0.056078676134347916 -0.97604739665985107
vn -0.98350292444229126 0.03275718167424202 0.17790152132511139
vn -0.32855749130249023 0.061537813395261765 -0.94247710704803467
vn -0.83277130126953125 0.10628402978181839 0.54331916570663452
vn -0.89280807971954346 0.10035208612680435 0.43911635875701904
vn -0.70369237661361694 0.044636696577072144 -0.70910125970840454
vn -0.70369237661361694 0.044636696577072144 -0.70910125970840454
vn -0.70369237661361694 0.044636696577072144 -0.70910125970840454
vn -0.2974582314491272 0.068204529583454132 -0.95229554176330566
vn -0.32855749130249023 0.061537813395261765 -0.94247710704803467
vn -0.32855749130249023 0.061537813395261765 -0.94247710704803467
vn 0.20282383263111115 -0.092530734837055206 -0.97483360767364502
vn 0.087215706706047058 -0.079892277717590332 -0.99298065900802612
vn 0.435538649559021 -0.10628402233123779 -0.89387351274490356
vn 0.35348609089851379 -0.10200818628072739 -0.92986124753952026
vn 0.14638474583625793 -0.04256787896156311 -0.98831140995025635
vn 0.13944198191165924 0 -0.9902302622795105
vn -0.99329936504364014 -0.052858654409646988 -0.10277318954467773
vn -0.99882954359054565 -0.037654921412467957 -0.03035794198513031
vn -0.99461168050765991 -0.056078679859638214 -0.087193779647350311
vn 0.054212827235460281 -0.03275718167424202 -0.99799197912216187
vn -0.97602009773254395 -0.061537813395261765 -0.20880115032196045
vn 0.435538649559021 -0.10628402233123779 -0.89387351274490356
vn 0.32467865943908691 -0.10035207867622375 -0.94048565626144409
vn -0.7911074161529541 -0.044636700302362442 -0.61004644632339478
vn -0.7911074161529541 -0.044636700302362442 -0.61004644632339478
vn -0.7911074161529541 -0.044636700302362442 -0.61004644632339478
vn -0.98189479112625122 -0.068204529583454132 -0.17672225832939148
vn -0.97602009773254395 -0.061537813395261765 -0.20880115032196045
vn -0.97602009773254395 -0.061537813395261765 -0.20880115032196045
vn 0.99879014492034912 0 -0.049175594002008438
vn 0.99879014492034912 0 -0.049175594002008438
vn 0.99879014492034912 0 -0.049175594002008438
vn 0.99879014492034912 0 -0.049175594002008438
vn -0.13944198191165924 0 0.9902302622795105
vn -0.13944198191165924 0 0.9902302622795105
vn -0.13944198191165924 0 0.9902302622795105
vn -0.13944198191165924 0 0.9902302622795105
vn 0.79189670085906982 0 0.61065506935119629
vn 0.79189670085906982 0 0.61065506935119629
vn 0.79189670085906982 0 0.61065506935119629
vn 0.79189670085906982 0 0.61065506935119629
vn 0.99174672365188599 0 0.12821245193481445
vn 0.99174672365188599 0 0.12821245193481445
vn 0.99174672365188599 0 0.12821245193481445
vn 0.99174672365188599 0 0.12821245193481445
vn -0.99879014492034912 0 0.049175594002008438
vn -0.99879014492034912 0 0.049175594002008438
vn -0.99879014492034912 0 0.049175594002008438
vn -0.99879014492034912 0 0.049175594002008438
vn -0.63013756275177002 0.30507001280784607 0.71404403448104858
vn -0.63013756275177002 0.30507001280784607 0.71404403448104858
vn -0.63013756275177002 0.30507001280784607 0.71404403448104858
vn 0 1 0
vn 0 1 0
vn 0 1 0
vn 0.66160523891448975 -0.015026706270873547 -0.74970173835754395
vn 0.66160523891448975 -0.015026706270873547 -0.74970173835754395
vn 0.66160523891448975 -0.015026706270873547 -0.74970173835754395
vn 0.66160523891448975 -0.015026706270873547 -0.74970173835754395
vn -0.16727349162101746 0.078759573400020599 -0.98275965452194214
vn -0.16727349162101746 0.078759573400020599 -0.98275965452194214
vn -0.16727349162101746 0.078759573400020599 -0.98275965452194214
vn 0.13531838357448578 0 -0.99080216884613037
vn 0.13531838357448578 0 -0.99080216884613037
vn 0.13531838357448578 0 -0.99080216884613037
vn 0.13531838357448578 0 -0.99080216884613037
vn -0.96507459878921509 -0.0017635419499129057 0.26196929812431335
vn -0.96519643068313599 -0.0035269376821815968 0.26150226593017578
vn -0.96507459878921509 -0.0017635419499129057 0.26196929812431335
vn -0.96519643068313599 -0.0035269376821815968 0.26150226593017578
vn 0 1 0
vn 0 1 0
vn 0 1 0
vn 0 1 0
vn 0 1 0
vn 0 1 0
vn 0 1 0
vn 0 1 0
vn 0 1 0
vn 0 1 0
vn -0.96494948863983154 0 0.26243558526039124
vn -0.17531198263168335 0 -0.98451292514801025
vn -0.17531198263168335 0 -0.98451292514801025
vn -0.17531198263168335 0 -0.98451292514801025
vn -0.17531198263168335 0 -0.98451292514801025
vn 0 1 0
vn 0 1 0
vn 0 1 0
vn 0 1 0
f 1/1/1 2/2/2 3/3/3
f 2/2/2 1/1/1 4/4/4
f 5/5/5 6/6/6 7/7/7
f 6/6/6 5/5/5 8/8/8
f 9/9/9 10/10/10 11/11/11
f 10/10/10 9/9/9 12/12/12
f 13/13/13 14/14/14 15/15/15
f 14/14/14 13/13/13 16/16/16
f 21/21/21 17/17/17 18/18/18
f 17/17/17 21/21/21 20/20/20
f 19/19/19 20/20/20 21/21/21
f 21/21/21 26/26/26 22/22/22
f 33/33/33 23/23/23 25/25/25
f 23/23/23 24/24/24 25/25/25
f 18/18/18 26/26/26 21/21/21
f 27/27/27 34/34/34 35/35/35
f 20/20/20 28/28/28 29/29/29
f 28/28/28 20/20/20 19/19/19
f 20/20/20 29/29/29 17/17/17
f 30/30/30 31/31/31 32/32/32
f 33/33/33 34/34/34 23/23/23
f 34/34/34 33/33/33 35/35/35
f 40/40/40 36/36/36 37/37/37
f 36/36/36 40/40/40 39/39/39
f 38/38/38 39/39/39 40/40/40
f 40/40/40 45/45/45 41/41/41
f 52/52/52 42/42/42 44/44/44
f 42/42/42 43/43/43 44/44/44
f 37/37/37 45/45/45 40/40/40
f 46/46/46 53/53/53 54/54/54
f 39/39/39 47/47/47 48/48/48
f 47/47/47 39/39/39 38/38/38
f 39/39/39 48/48/48 36/36/36
f 49/49/49 50/50/50 51/51/51
f 52/52/52 53/53/53 42/42/42
f 53/53/53 52/52/52 54/54/54
f 55/55/55 56/56/56 57/57/57
f 58/58/58 55/55/55 57/57/57
f 59/59/59 60/60/60 61/61/61
f 59/59/59 61/61/61 62/62/62
f 63/63/63 64/64/64 65/65/65
f 66/66/66 63/63/63 65/65/65
f 67/67/67 68/68/68 69/69/69
f 70/70/70 67/67/67 69/69/69
f 71/71/71 72/72/72 73/73/73
f 74/74/74 71/71/71 73/73/73
f 75/75/75 76/76/76 77/77/77
f 78/78/78 79/79/79 80/80/80
f 81/81/81 82/82/82 83/83/83
f 82/82/82 81/81/81 84/84/84
f 85/85/85 86/86/86 87/87/87
f 88/88/88 89/89/89 90/90/90
f 89/89/89 88/88/88 91/91/91
f 92/92/92 93/93/93 94/94/94
f 93/93/93 92/92/92 95/95/95
f 96/96/96 97/97/97 98/98/98
f 97/97/97 96/96/96 99/99/99
f 97/97/97 99/99/99 100/100/100
f 99/99/99 96/96/96 101/101/101
f 101/101/101 96/96/96 103/103/103
f 102/102/102 100/100/100 99/99/99
f 103/103/103 104/104/104 101/101/101
f 104/104/104 103/103/103 105/105/105
f 92/92/92 94/94/94 106/106/106
f 107/107/107 108/108/108 109/109/109
f 108/108/108 107/107/107 110/110/110
f 111/111/111 112/112/112 113/113/113
f 112/112/112 111/111/111 114/114/114
