# Rhino

mtllib 79ANDPARK.mtl
usemtl Default
v 187.86782836914063 21.064020156860352 -67.250740051269531
v 187.86782836914063 7.1198329925537109 0.39852321147918701
v 238.60478210449219 35.739189147949219 -67.250740051269531
v 238.60478210449219 20.33673095703125 16.870265960693359
v 238.60478210449219 28.037960052490234 -25.190237045288086
v 213.23629760742188 13.72828197479248 8.634394645690918
v 187.86782836914063 14.091926574707031 -33.426109313964844
v 204.154052734375 13.900553703308105 -7.1591978073120117
v 209.15153503417969 15.488656997680664 -7.1591978073120117
v 214.15077209472656 17.071239471435547 -7.1591978073120117
v 219.15165710449219 18.64862060546875 -7.1591978073120117
v 224.154052734375 20.221126556396484 -7.1591978073120117
v 224.154052734375 21.881547927856445 -15.959197998046875
v 224.154052734375 23.541969299316406 -24.759197235107422
v 224.154052734375 25.202392578125 -33.559196472167969
v 224.154052734375 26.862813949584961 -42.359199523925781
v 224.154052734375 28.523237228393555 -51.159198760986328
v 219.1534423828125 27.043233871459961 -51.159198760986328
v 214.15322875976563 25.561914443969727 -51.159198760986328
v 209.15341186523438 24.079185485839844 -51.159198760986328
v 204.154052734375 22.594961166381836 -51.159198760986328
v 204.154052734375 20.8560791015625 -42.359199523925781
v 204.154052734375 19.117198944091797 -33.559196472167969
v 204.154052734375 17.378316879272461 -24.759197235107422
v 204.154052734375 15.639434814453125 -15.959197998046875
v 195.115966796875 21.13868522644043 -57.250400543212891
v 195.115966796875 17.095109939575195 -37.249725341796875
v 202.36410522460938 23.205377578735352 -56.914241790771484
v 202.36410522460938 19.10228157043457 -36.241249084472656
v 195.115966796875 15.073323249816895 -27.249385833740234
v 209.61224365234375 25.272069931030273 -56.578083038330078
v 202.36410522460938 17.05073356628418 -25.904752731323242
v 216.86036682128906 27.338762283325195 -56.241928100585938
v 195.115966796875 13.051535606384277 -17.249048233032227
v 202.36410522460938 14.999185562133789 -15.568257331848145
v 195.115966796875 11.029748916625977 -7.2487092018127441
v 202.36410522460938 12.947637557983398 -5.2317609786987305
v 209.61224365234375 14.86552619934082 -3.2148127555847168
v 224.10850524902344 29.405452728271484 -55.905769348144531
v 231.35664367675781 31.472145080566406 -55.569610595703125
v 231.35664367675781 27.130964279174805 -32.207355499267578
v 231.35664367675781 24.96037483215332 -20.526226043701172
v 216.86036682128906 16.783414840698242 -1.1978647708892822
v 224.10850524902344 18.701305389404297 0.81908327341079712
v 231.35664367675781 20.619194030761719 2.836031436920166
v 231.35664367675781 22.789783477783203 -8.8450965881347656
v 194.75355529785156 0 -6.8037881851196289
v 194.75355529785156 0 -19.061420440673828
v 194.75355529785156 0 -31.319051742553711
v 194.75355529785156 0 -43.576683044433594
v 194.75355529785156 0 -55.834316253662109
v 202.14665222167969 0 -6.8037881851196289
v 202.14665222167969 0 -19.061420440673828
v 202.14665222167969 0 -31.319051742553711
v 202.14665222167969 0 -43.576683044433594
v 202.14665222167969 0 -55.834316253662109
v 224.32595825195313 0 5.4538435935974121
v 231.71905517578125 0 5.4538435935974121
v 231.71905517578125 0 -6.8037881851196289
v 238.60478210449219 0 -67.250740051269531
v 187.86782836914063 0 -67.250740051269531
v 187.86782836914063 0 -33.426109313964844
v 187.86782836914063 0 0.39852321147918701
v 238.60478210449219 0 16.870265960693359
v 238.60478210449219 0 -25.190237045288086
v 213.23629760742188 0 8.634394645690918
v 224.154052734375 0 -7.1591978073120117
v 217.48739624023438 0 -7.1591978073120117
v 210.82072448730469 0 -7.1591978073120117
v 204.154052734375 0 -7.1591978073120117
v 224.154052734375 0 -51.159198760986328
v 224.154052734375 0 -42.359199523925781
v 224.154052734375 0 -33.559196472167969
v 224.154052734375 0 -24.759197235107422
v 224.154052734375 0 -15.959197998046875
v 204.154052734375 0 -51.159198760986328
v 210.82072448730469 0 -51.159198760986328
v 217.48739624023438 0 -51.159198760986328
v 204.154052734375 0 -15.959197998046875
v 204.154052734375 0 -24.759197235107422
v 204.154052734375 0 -33.559196472167969
v 204.154052734375 0 -42.359199523925781
v 209.53974914550781 0 5.4538435935974121
v 216.93284606933594 0 -55.834316253662109
v 231.71905517578125 0 -31.319051742553711
v 231.71905517578125 0 -43.576683044433594
v 224.32595825195313 0 -55.834316253662109
v 231.71905517578125 0 -55.834316253662109
v 238.60478210449219 35.739189147949219 -67.250740051269531
v 187.86782836914063 21.064020156860352 -67.250740051269531
v 238.60478210449219 0 -67.250740051269531
v 187.86782836914063 0 -67.250740051269531
v 238.60478210449219 17.869594573974609 -67.250740051269531
v 187.86782836914063 21.064020156860352 -67.250740051269531
v 187.86782836914063 14.091926574707031 -33.426109313964844
v 187.86782836914063 7.1198329925537109 0.39852321147918701
v 187.86782836914063 0 -67.250740051269531
v 187.86782836914063 0 -33.426109313964844
v 187.86782836914063 0 0.39852321147918701
v 187.86782836914063 7.1198329925537109 0.39852321147918701
v 213.23629760742188 13.72828197479248 8.634394645690918
v 238.60478210449219 20.33673095703125 16.870265960693359
v 187.86782836914063 0 0.39852321147918701
v 213.23629760742188 0 8.634394645690918
v 238.60478210449219 0 16.870265960693359
v 238.60478210449219 20.33673095703125 16.870265960693359
v 238.60478210449219 28.037960052490234 -25.190237045288086
v 238.60478210449219 35.739189147949219 -67.250740051269531
v 238.60478210449219 0 16.870265960693359
v 238.60478210449219 0 -25.190237045288086
v 238.60478210449219 0 -67.250740051269531
v 238.60478210449219 17.869594573974609 -67.250740051269531
v 204.154052734375 0 -7.1591978073120117
v 224.154052734375 0 -7.1591978073120117
v 224.154052734375 20.221126556396484 -7.1591978073120117
v 219.15165710449219 18.64862060546875 -7.1591978073120117
v 214.15077209472656 17.071239471435547 -7.1591978073120117
v 209.15153503417969 15.488656997680664 -7.1591978073120117
v 204.154052734375 13.900553703308105 -7.1591978073120117
v 210.82072448730469 0 -7.1591978073120117
v 217.48739624023438 0 -7.1591978073120117
v 224.154052734375 10.110563278198242 -7.1591978073120117
v 224.154052734375 0 -7.1591978073120117
v 224.154052734375 0 -51.159198760986328
v 224.154052734375 28.523237228393555 -51.159198760986328
v 224.154052734375 26.862813949584961 -42.359199523925781
v 224.154052734375 25.202392578125 -33.559196472167969
v 224.154052734375 23.541969299316406 -24.759197235107422
v 224.154052734375 21.881547927856445 -15.959197998046875
v 224.154052734375 20.221126556396484 -7.1591978073120117
v 224.154052734375 14.261618614196777 -51.159198760986328
v 224.154052734375 0 -15.959197998046875
v 224.154052734375 0 -24.759197235107422
v 224.154052734375 0 -33.559196472167969
v 224.154052734375 0 -42.359199523925781
v 224.154052734375 10.110563278198242 -7.1591978073120117
v 224.154052734375 0 -51.159198760986328
v 224.154052734375 28.523237228393555 -51.159198760986328
v 204.154052734375 0 -51.159198760986328
v 204.154052734375 22.594961166381836 -51.159198760986328
v 209.15341186523438 24.079185485839844 -51.159198760986328
v 214.15322875976563 25.561914443969727 -51.159198760986328
v 219.1534423828125 27.043233871459961 -51.159198760986328
v 224.154052734375 14.261618614196777 -51.159198760986328
v 217.48739624023438 0 -51.159198760986328
v 210.82072448730469 0 -51.159198760986328
v 204.154052734375 11.297480583190918 -51.159198760986328
v 204.154052734375 0 -51.159198760986328
v 204.154052734375 22.594961166381836 -51.159198760986328
v 204.154052734375 0 -7.1591978073120117
v 204.154052734375 13.900553703308105 -7.1591978073120117
v 204.154052734375 15.639434814453125 -15.959197998046875
v 204.154052734375 17.378316879272461 -24.759197235107422
v 204.154052734375 19.117198944091797 -33.559196472167969
v 204.154052734375 20.8560791015625 -42.359199523925781
v 204.154052734375 0 -42.359199523925781
v 204.154052734375 0 -33.559196472167969
v 204.154052734375 0 -24.759197235107422
v 204.154052734375 0 -15.959197998046875
v 204.154052734375 11.297480583190918 -51.159198760986328
vt 0.2966587245464325 0.51965725421905518
vt 0.2966587245464325 0.99853515625
vt 0.60387295484542847 0.51965725421905518
vt 0.60387295484542847 0.99853515625
vt 0.60387295484542847 0.75909620523452759
vt 0.45026582479476929 0.99853515625
vt 0.2966587245464325 0.75909620523452759
vt 0.39527246356010437 0.91419875621795654
vt 0.42553243041038513 0.90561342239379883
vt 0.4558030366897583 0.89739090204238892
vt 0.48608356714248657 0.88950884342193604
vt 0.51637327671051025 0.881946861743927
vt 0.51637327671051025 0.82889199256896973
vt 0.51637327671051025 0.77583712339401245
vt 0.51637327671051025 0.72278225421905518
vt 0.51637327671051025 0.6697273850440979
vt 0.51637327671051025 0.61667251586914063
vt 0.48609435558319092 0.61869657039642334
vt 0.4558178186416626 0.62080681324005127
vt 0.42554378509521484 0.62300902605056763
vt 0.39527246356010437 0.6253090500831604
vt 0.39527246356010437 0.68308699131011963
vt 0.39527246356010437 0.74086493253707886
vt 0.39527246356010437 0.79864287376403809
vt 0.39527246356010437 0.85642087459564209
vt 0.34054645895957947 0.58806836605072021
vt 0.34054645895957947 0.72489064931869507
vt 0.38443422317504883 0.58806836605072021
vt 0.38443422317504883 0.72489064931869507
vt 0.34054645895957947 0.79330176115036011
vt 0.4283219575881958 0.58806836605072021
vt 0.38443422317504883 0.79330176115036011
vt 0.47220972180366516 0.58806836605072021
vt 0.34054645895957947 0.86171287298202515
vt 0.38443422317504883 0.86171287298202515
vt 0.34054645895957947 0.93012404441833496
vt 0.38443422317504883 0.93012404441833496
vt 0.4283219575881958 0.93012404441833496
vt 0.51609748601913452 0.58806836605072021
vt 0.55998522043228149 0.58806836605072021
vt 0.55998522043228149 0.72489064931869507
vt 0.55998522043228149 0.79330176115036011
vt 0.47220972180366516 0.93012404441833496
vt 0.51609748601913452 0.93012404441833496
vt 0.55998522043228149 0.93012404441833496
vt 0.55998522043228149 0.86171287298202515
vt 0.64665383100509644 0.13769648969173431
vt 0.64665383100509644 0.20654472708702087
vt 0.64665383100509644 0.27539297938346863
vt 0.64665383100509644 0.34424123167991638
vt 0.64665383100509644 0.41308945417404175
vt 0.6879698634147644 0.13769648969173431
vt 0.6879698634147644 0.20654472708702087
vt 0.6879698634147644 0.27539297938346863
vt 0.6879698634147644 0.34424123167991638
vt 0.6879698634147644 0.41308945417404175
vt 0.81191796064376831 0.068848244845867157
vt 0.85323399305343628 0.068848244845867157
vt 0.85323399305343628 0.13769648969173431
vt 0.89171457290649414 0.4772128164768219
vt 0.6081731915473938 0.4772128164768219
vt 0.6081731915473938 0.2872278094291687
vt 0.6081731915473938 0.097242794930934906
vt 0.89171457290649414 0.0047248797491192818
vt 0.89171457290649414 0.24096885323524475
vt 0.74994391202926636 0.050983835011720657
vt 0.81095731258392334 0.13969273865222931
vt 0.77370095252990723 0.13969273865222931
vt 0.73644453287124634 0.13969273865222931
vt 0.69918811321258545 0.13969273865222931
vt 0.81095731258392334 0.38683041930198669
vt 0.81095731258392334 0.33740288019180298
vt 0.81095731258392334 0.28797534108161926
vt 0.81095731258392334 0.23854780197143555
vt 0.81095731258392334 0.18912026286125183
vt 0.69918811321258545 0.38683041930198669
vt 0.73644453287124634 0.38683041930198669
vt 0.77370095252990723 0.38683041930198669
vt 0.69918811321258545 0.18912026286125183
vt 0.69918811321258545 0.23854780197143555
vt 0.69918811321258545 0.28797534108161926
vt 0.69918811321258545 0.33740288019180298
vt 0.72928589582443237 0.068848244845867157
vt 0.77060192823410034 0.41308945417404175
vt 0.85323399305343628 0.27539297938346863
vt 0.85323399305343628 0.34424123167991638
vt 0.81191796064376831 0.41308945417404175
vt 0.85323399305343628 0.41308945417404175
vt 0.2951938807964325 0.7328600287437439
vt 0 0.7328600287437439
vt 0.2951938807964325 0.93359869718551636
vt 0 0.93359869718551636
vt 0.2951938807964325 0.83322936296463013
vt 0.59437108039855957 0.40134558081626892
vt 0.400392085313797 0.40134558081626892
vt 0.20641306042671204 0.40134558081626892
vt 0.59437108039855957 0.51819241046905518
vt 0.400392085313797 0.51819241046905518
vt 0.20641306042671204 0.51819241046905518
vt 0.51509213447570801 0.12691059708595276
vt 0.36075258255004883 0.12691059708595276
vt 0.20641306042671204 0.12691059708595276
vt 0.51509213447570801 0.23967240750789642
vt 0.36075258255004883 0.23967240750789642
vt 0.20641306042671204 0.23967240750789642
vt 0 0
vt 0 0.24017138779163361
vt 0 0.48034277558326721
vt 0.20073863863945007 0
vt 0.20073863863945007 0.24017138779163361
vt 0.20073863863945007 0.48034277558326721
vt 0.10036931931972504 0.48034277558326721
vt 0 0.51965725421905518
vt 0.11233530938625336 0.51965725421905518
vt 0.11233530938625336 0.63323456048965454
vt 0.084238007664680481 0.62440216541290283
vt 0.056149240583181381 0.61554235219955444
vt 0.028069678694009781 0.60665339231491089
vt 0 0.59773337841033936
vt 0.037445101886987686 0.51965725421905518
vt 0.074890203773975372 0.51965725421905518
vt 0.11233530938625336 0.57644587755203247
vt 0.20641306042671204 0.24113725125789642
vt 0.45355072617530823 0.24113725125789642
vt 0.45355072617530823 0.39988073706626892
vt 0.4041232168674469 0.39063981175422668
vt 0.35469567775726318 0.38139885663986206
vt 0.30526813864707947 0.37215793132781982
vt 0.25584059953689575 0.36291700601577759
vt 0.20641306042671204 0.35367608070373535
vt 0.45355072617530823 0.32050898671150208
vt 0.25584059953689575 0.24113725125789642
vt 0.30526813864707947 0.24113725125789642
vt 0.35469567775726318 0.24113725125789642
vt 0.4041232168674469 0.24113725125789642
vt 0.20641306042671204 0.29740667343139648
vt 0.14832936227321625 0.51965725421905518
vt 0.14832936227321625 0.67986553907394409
vt 0.2606646716594696 0.51965725421905518
vt 0.2606646716594696 0.64656782150268555
vt 0.23258443176746368 0.65490436553955078
vt 0.20450170338153839 0.66323250532150269
vt 0.17641662061214447 0.67155271768569946
vt 0.14832936227321625 0.59976136684417725
vt 0.18577446043491364 0.51965725421905518
vt 0.22321955859661102 0.51965725421905518
vt 0.2606646716594696 0.58311253786087036
vt 0.20641306042671204 0
vt 0.20641306042671204 0.12544575333595276
vt 0.45355072617530823 0
vt 0.45355072617530823 0.077174961566925049
vt 0.4041232168674469 0.086829125881195068
vt 0.35469567775726318 0.096483282744884491
vt 0.30526813864707947 0.10613743215799332
vt 0.25584059953689575 0.11579158902168274
vt 0.25584059953689575 0
vt 0.30526813864707947 0
vt 0.35469567775726318 0
vt 0.4041232168674469 0
vt 0.20641306042671204 0.062722876667976379
vn -0.27255940437316895 0.94232863187789917 0.19423724710941315
vn -0.30535906553268433 0.93263083696365356 0.19223828613758087
vn -0.27365046739578247 0.94610083103179932 0.17322994768619537
vn -0.30019459128379822 0.93827962875366211 0.17179790139198303
vn -0.28700518608093262 0.94226443767547607 0.1725275069475174
vn -0.30252212285995483 0.93580842018127441 0.18095004558563232
vn -0.28908649086952209 0.9375922679901123 0.19326096773147583
vn -0.29816484451293945 0.93640804290771484 0.18503439426422119
vn -0.29721447825431824 0.93711930513381958 0.18295080959796906
vn -0.29632347822189331 0.9377896785736084 0.18095003068447113
vn -0.29548707604408264 0.93842238187789917 0.17902736365795135
vn -0.29470100998878479 0.93902027606964111 0.17717842757701874
vn -0.2916075587272644 0.93995237350463867 0.17735429108142853
vn -0.28850492835044861 0.94087642431259155 0.17752864956855774
vn -0.28539317846298218 0.94179236888885498 0.17770147323608398
vn -0.28227239847183228 0.94270014762878418 0.17787274718284607
vn -0.2791425883769989 0.9435996413230896 0.17804247140884399
vn -0.27928566932678223 0.94319772720336914 0.17993764579296112
vn -0.27943888306617737 0.94277375936508179 0.18191070854663849
vn -0.27960318326950073 0.94232606887817383 0.18396648764610291
vn -0.27977955341339111 0.9418526291847229 0.1861102432012558
vn -0.28348210453987122 0.94078648090362549 0.18589958548545837
vn -0.28717198967933655 0.93970882892608643 0.1856866329908371
vn -0.29084914922714233 0.93861979246139526 0.18547144532203674
vn -0.29451349377632141 0.93751949071884155 0.18525402247905731
vn -0.27734586596488953 0.94171726703643799 0.1903887540102005
vn -0.28647077083587646 0.93908923864364624 0.18985745310783386
vn -0.27737903594970703 0.94237840175628662 0.18703962862491608
vn -0.28621441125869751 0.93983310461044312 0.18653444945812225
vn -0.29100432991981506 0.93774914741516113 0.18958652019500732
vn -0.27740725874900818 0.94298875331878662 0.18389526009559631
vn -0.29060500860214233 0.93853586912155151 0.18627698719501495
vn -0.27743116021156311 0.94355368614196777 0.1809375137090683
vn -0.29551839828491211 0.93639189004898071 0.18931211531162262
vn -0.2949773371219635 0.93722265958786011 0.18601633608341217
vn -0.3000127375125885 0.93501782417297363 0.18903432786464691
vn -0.29933124780654907 0.93589359521865845 0.18575255572795868
vn -0.29868823289871216 0.93670541048049927 0.18266992270946503
vn -0.27745136618614197 0.94407796859741211 0.17815032601356506
vn -0.27746841311454773 0.94456559419631958 0.1755194365978241
vn -0.28530803322792053 0.94230544567108154 0.1750994473695755
vn -0.28920659422874451 0.94115591049194336 0.17488585412502289
vn -0.29808062314987183 0.93745988607406616 0.17976894974708557
vn -0.29750558733940125 0.93816274404525757 0.17703410983085632
vn -0.29696056246757507 0.93881899118423462 0.17445158958435059
vn -0.2930908203125 0.93999373912811279 0.17466989159584045
vn 0 -1 0
vn 0 -1 0
vn 0 -1 0
vn 0 -1 0
vn 0 -1 0
vn 0 -1 0
vn 0 -1 0
vn 0 -1 0
vn 0 -1 0
vn 0 -1 0
vn 0 -1 0
vn 0 -1 0
vn 0 -1 0
vn 0 -1 0
vn 0 -1 0
vn 0 -1 0
vn 0 -1 0
vn 0 -1 0
vn 0 -1 0
vn 0 -1 0
vn 0 -1 0
vn 0 -1 0
vn 0 -1 0
vn 0 -1 0
vn 0 -1 0
vn 0 -1 0
vn 0 -1 0
vn 0 -1 0
vn 0 -1 0
vn 0 -1 0
vn 0 -1 0
vn 0 -1 0
vn 0 -1 0
vn 0 -1 0
vn 0 -1 0
vn 0 -1 0
vn 0 -1 0
vn 0 -1 0
vn 0 -1 0
vn 0 -1 0
vn 0 -1 0
vn 0 -1 0
vn 0 0 -1
vn 0 0 -1
vn 0 0 -1
vn 0 0 -1
vn 0 0 -1
vn -1 0 0
vn -1 0 0
vn -1 0 0
vn -1 0 0
vn -1 0 0
vn -1 0 0
vn -0.3087848424911499 0 0.95113193988800049
vn -0.3087848424911499 0 0.95113193988800049
vn -0.3087848424911499 0 0.95113193988800049
vn -0.3087848424911499 0 0.95113193988800049
vn -0.3087848424911499 0 0.95113193988800049
vn -0.3087848424911499 0 0.95113193988800049
vn 1 0 0
vn 1 0 0
vn 1 0 0
vn 1 0 0
vn 1 0 0
vn 1 0 0
vn 1 0 0
vn 0 0 -1
vn 0 0 -1
vn 0 0 -1
vn 0 0 -1
vn 0 0 -1
vn 0 0 -1
vn 0 0 -1
vn 0 0 -1
vn 0 0 -1
vn 0 0 -1
vn -1 0 0
vn -1 0 0
vn -1 0 0
vn -1 0 0
vn -1 0 0
vn -1 0 0
vn -1 0 0
vn -1 0 0
vn -1 0 0
vn -1 0 0
vn -1 0 0
vn -1 0 0
vn -1 0 0
vn -1 0 0
vn 0 0 1
vn 0 0 1
vn 0 0 1
vn 0 0 1
vn 0 0 1
vn 0 0 1
vn 0 0 1
vn 0 0 1
vn 0 0 1
vn 0 0 1
vn 0 0 1
vn 1 0 0
vn 1 0 0
vn 1 0 0
vn 1 0 0
vn 1 0 0
vn 1 0 0
vn 1 0 0
vn 1 0 0
vn 1 0 0
vn 1 0 0
vn 1 0 0
vn 1 0 0
vn 1 0 0
f 7/7/7 27/27/27 26/26/26 1/1/1
f 28/28/28 1/1/1 26/26/26
f 27/27/27 29/29/29 28/28/28 26/26/26
f 21/21/21 28/28/28 22/22/22
f 27/27/27 7/7/7 30/30/30
f 28/28/28 31/31/31 1/1/1
f 20/20/20 31/31/31 21/21/21
f 28/28/28 21/21/21 31/31/31
f 23/23/23 22/22/22 29/29/29
f 29/29/29 27/27/27 30/30/30 32/32/32
f 28/28/28 29/29/29 22/22/22
f 1/1/1 31/31/31 33/33/33 3/3/3
f 29/29/29 32/32/32 23/23/23
f 34/34/34 35/35/35 32/32/32 30/30/30
f 2/2/2 36/36/36 34/34/34 7/7/7
f 37/37/37 36/36/36 2/2/2
f 36/36/36 37/37/37 35/35/35 34/34/34
f 35/35/35 24/24/24 32/32/32
f 30/30/30 7/7/7 34/34/34
f 25/25/25 35/35/35 8/8/8
f 38/38/38 8/8/8 37/37/37
f 8/8/8 35/35/35 37/37/37
f 9/9/9 8/8/8 38/38/38
f 6/6/6 37/37/37 2/2/2
f 10/10/10 9/9/9 38/38/38
f 24/24/24 35/35/35 25/25/25
f 24/24/24 23/23/23 32/32/32
f 38/38/38 37/37/37 6/6/6
f 19/19/19 31/31/31 20/20/20
f 18/18/18 39/39/39 33/33/33
f 3/3/3 33/33/33 39/39/39
f 33/33/33 19/19/19 18/18/18
f 17/17/17 39/39/39 18/18/18
f 31/31/31 19/19/19 33/33/33
f 17/17/17 40/40/40 39/39/39
f 3/3/3 39/39/39 40/40/40
f 3/3/3 40/40/40 41/41/41 5/5/5
f 16/16/16 40/40/40 17/17/17
f 16/16/16 41/41/41 40/40/40
f 14/14/14 41/41/41 15/15/15
f 15/15/15 41/41/41 16/16/16
f 5/5/5 41/41/41 42/42/42
f 11/11/11 10/10/10 43/43/43
f 12/12/12 11/11/11 44/44/44
f 44/44/44 43/43/43 6/6/6
f 43/43/43 38/38/38 6/6/6
f 11/11/11 43/43/43 44/44/44
f 4/4/4 45/45/45 44/44/44 6/6/6
f 44/44/44 45/45/45 12/12/12
f 43/43/43 10/10/10 38/38/38
f 42/42/42 14/14/14 13/13/13
f 41/41/41 14/14/14 42/42/42
f 46/46/46 42/42/42 13/13/13
f 45/45/45 4/4/4 46/46/46
f 5/5/5 42/42/42 46/46/46
f 46/46/46 12/12/12 45/45/45
f 46/46/46 4/4/4 5/5/5
f 13/13/13 12/12/12 46/46/46
f 53/53/53 52/52/52 47/47/47 48/48/48
f 54/54/54 53/53/53 48/48/48 49/49/49
f 55/55/55 54/54/54 49/49/49 50/50/50
f 56/56/56 55/55/55 50/50/50 51/51/51
f 57/57/57 59/59/59 58/58/58
f 48/48/48 47/47/47 63/63/63
f 83/83/83 47/47/47 52/52/52
f 53/53/53 79/79/79 70/70/70 52/52/52
f 83/83/83 63/63/63 47/47/47
f 62/62/62 48/48/48 63/63/63
f 69/69/69 83/83/83 70/70/70
f 52/52/52 70/70/70 83/83/83
f 53/53/53 80/80/80 79/79/79
f 66/66/66 83/83/83 57/57/57
f 83/83/83 66/66/66 63/63/63
f 54/54/54 81/81/81 80/80/80 53/53/53
f 50/50/50 49/49/49 62/62/62
f 48/48/48 62/62/62 49/49/49
f 61/61/61 51/51/51 50/50/50 62/62/62
f 56/56/56 51/51/51 61/61/61
f 55/55/55 82/82/82 81/81/81 54/54/54
f 56/56/56 76/76/76 82/82/82 55/55/55
f 77/77/77 76/76/76 56/56/56
f 84/84/84 56/56/56 61/61/61
f 57/57/57 68/68/68 67/67/67
f 59/59/59 67/67/67 75/75/75
f 75/75/75 74/74/74 85/85/85
f 83/83/83 69/69/69 68/68/68 57/57/57
f 58/58/58 64/64/64 57/57/57
f 66/66/66 57/57/57 64/64/64
f 58/58/58 59/59/59 64/64/64
f 65/65/65 64/64/64 59/59/59
f 75/75/75 85/85/85 59/59/59
f 57/57/57 67/67/67 59/59/59
f 59/59/59 85/85/85 65/65/65
f 72/72/72 86/86/86 85/85/85 73/73/73
f 84/84/84 78/78/78 77/77/77
f 87/87/87 71/71/71 78/78/78 84/84/84
f 56/56/56 84/84/84 77/77/77
f 71/71/71 86/86/86 72/72/72
f 86/86/86 65/65/65 85/85/85
f 88/88/88 86/86/86 71/71/71
f 60/60/60 88/88/88 87/87/87
f 71/71/71 87/87/87 88/88/88
f 86/86/86 88/88/88 60/60/60
f 84/84/84 60/60/60 87/87/87
f 86/86/86 60/60/60 65/65/65
f 85/85/85 74/74/74 73/73/73
f 61/61/61 60/60/60 84/84/84
f 93/93/93 90/90/90 89/89/89
f 92/92/92 93/93/93 91/91/91
f 90/90/90 93/93/93 92/92/92
f 95/95/95 94/94/94 97/97/97 98/98/98
f 96/96/96 95/95/95 98/98/98 99/99/99
f 101/101/101 100/100/100 103/103/103 104/104/104
f 102/102/102 101/101/101 104/104/104 105/105/105
f 107/107/107 106/106/106 109/109/109 110/110/110
f 112/112/112 108/108/108 107/107/107
f 107/107/107 110/110/110 112/112/112
f 110/110/110 111/111/111 112/112/112
f 119/119/119 120/120/120 113/113/113
f 119/119/119 118/118/118 120/120/120
f 117/117/117 120/120/120 118/118/118
f 117/117/117 121/121/121 120/120/120
f 122/122/122 114/114/114 121/121/121
f 115/115/115 122/122/122 116/116/116
f 122/122/122 117/117/117 116/116/116
f 121/121/121 117/117/117 122/122/122
f 136/136/136 132/132/132 123/123/123
f 136/136/136 133/133/133 132/132/132
f 129/129/129 136/136/136 130/130/130
f 133/133/133 136/136/136 129/129/129
f 129/129/129 128/128/128 133/133/133
f 128/128/128 134/134/134 133/133/133
f 131/131/131 135/135/135 134/134/134
f 131/131/131 124/124/124 135/135/135
f 131/131/131 127/127/127 126/126/126
f 126/126/126 125/125/125 131/131/131
f 127/127/127 131/131/131 128/128/128
f 134/134/134 128/128/128 131/131/131
f 144/144/144 145/145/145 137/137/137
f 138/138/138 143/143/143 144/144/144
f 144/144/144 143/143/143 142/142/142
f 142/142/142 145/145/145 144/144/144
f 147/147/147 139/139/139 146/146/146
f 141/141/141 147/147/147 146/146/146
f 142/142/142 141/141/141 146/146/146
f 140/140/140 147/147/147 141/141/141
f 145/145/145 142/142/142 146/146/146
f 160/160/160 156/156/156 148/148/148
f 160/160/160 157/157/157 156/156/156
f 149/149/149 155/155/155 160/160/160
f 160/160/160 155/155/155 154/154/154
f 153/153/153 157/157/157 160/160/160
f 152/152/152 159/159/159 158/158/158
f 151/151/151 150/150/150 159/159/159
f 154/154/154 153/153/153 160/160/160
f 158/158/158 153/153/153 152/152/152
f 159/159/159 152/152/152 151/151/151
f 158/158/158 157/157/157 153/153/153
